<?xml version="1.0" encoding="utf-8"?>
<!-- Generator: Adobe Illustrator 23.0.3, SVG Export Plug-In . SVG Version: 6.00 Build 0)  -->
<svg version="1.1" id="Слой_1" xmlns="http://www.w3.org/2000/svg" xmlns:xlink="http://www.w3.org/1999/xlink" x="0px" y="0px"
	 viewBox="0 0 566.93 566.93" style="enable-background:new 0 0 566.93 566.93;" xml:space="preserve">
<style type="text/css">
	.st0{fill:#7B00FF;}
</style>
<g>
	<path d="M178.56,307.91c0,4.36,3.73,7.9,8.33,7.9s8.33-3.54,8.33-7.9l0.25-46.25h14.46c4.73,0,8.32-4.91,8.32-9.4v-4.75
		l-26.34,0.09c-7.41,0.03-13.39,5.75-13.35,12.78V307.91z"/>
	<path d="M191.91,247.62l26.34-0.09v4.75c0,4.49-3.59,9.4-8.32,9.4h-14.46l-0.25,46.25c0,4.36-3.73,7.9-8.33,7.9
		s-8.33-3.54-8.33-7.9V260.4C178.52,253.37,184.5,247.64,191.91,247.62z M180.18,247.52l-9.07,14.15h-16.65l-0.08-14.01
		L180.18,247.52z"/>
	<g>
		<g>
			<path d="M263.85,291h-39.98c1.47,6.75,7.07,10.89,15.13,10.89c5.6,0,9.63-1.71,13.26-5.24l8.15,9.07
				c-4.91,5.75-12.28,8.77-21.81,8.77c-18.27,0-30.15-11.79-30.15-27.92c0-16.23,12.08-27.92,28.19-27.92
				c15.52,0,27.5,10.68,27.5,28.12C264.15,287.98,263.95,289.69,263.85,291z M223.68,281.83h26.03
				c-1.08-6.85-6.09-11.29-12.97-11.29C229.77,270.54,224.76,274.87,223.68,281.83z"/>
			<path d="M318.68,282.73v30.95h-14.34v-6.75c-2.85,4.94-8.35,7.56-16.11,7.56c-12.38,0-19.74-7.06-19.74-16.43
				c0-9.58,6.58-16.23,22.69-16.23h12.18c0-6.75-3.93-10.68-12.18-10.68c-5.6,0-11.39,1.92-15.22,5.04l-5.5-10.99
				c5.8-4.23,14.34-6.55,22.79-6.55C309.35,258.64,318.68,266.3,318.68,282.73z M303.36,296.55V291h-10.51
				c-7.17,0-9.43,2.72-9.43,6.35c0,3.93,3.24,6.55,8.64,6.55C297.17,303.9,301.59,301.48,303.36,296.55z"/>
			<path d="M416.86,282.63v31.05h-15.32v-28.63c0-8.77-3.83-12.8-10.02-12.8c-6.88,0-11.69,4.54-11.69,14.21v27.22H364.5v-28.63
				c0-8.77-3.63-12.8-10.02-12.8c-6.78,0-11.59,4.54-11.59,14.21v27.22h-15.32v-54.23h14.63v6.25c3.93-4.64,9.82-7.06,16.6-7.06
				c7.37,0,13.65,2.92,17.39,8.87c4.22-5.55,11.1-8.87,19.05-8.87C407.82,258.64,416.86,266.1,416.86,282.63z"/>
			<g>
				<g>
					<path class="st0" d="M553,287c0,17.04-11.49,27.92-26.32,27.92c-6.58,0-11.98-2.12-15.91-6.55v25.3h-15.32v-73.79h14.63v6.25
						c3.83-4.74,9.53-7.06,16.6-7.06C541.51,259.08,553,269.97,553,287z M537.48,287c0-9.37-5.8-15.02-13.46-15.02
						c-7.66,0-13.46,5.65-13.46,15.02s5.79,15.02,13.46,15.02C531.68,302.02,537.48,296.38,537.48,287z"/>
				</g>
			</g>
		</g>
	</g>
	<g>
		<g>
			<path class="st0" d="M485.97,282.72c0,20.1-11.28,31.22-30.29,31.22c-19.01,0-30.29-11.12-30.29-31.22v-38.24h5.84
				c5.32,0,9.64,4.41,9.64,9.85v27.81c0,12.97,5.54,18.34,14.9,18.34c9.46,0,14.91-5.37,14.91-18.34v-37.66h15.29V282.72z"/>
		</g>
	</g>
	<path class="st0" d="M115.73,218.93H36.79c-9.77,0-17.68,7.94-17.68,17.71v77.94c0,9.77,7.92,17.68,17.68,17.68h78.94
		c9.77,0,17.68-7.92,17.68-17.68v-77.94C133.42,226.87,125.5,218.93,115.73,218.93z M36.46,240.76l-0.1-16.88l33.07-0.17
		l-11.63,17.05H36.46z M113.16,292.26c0,22.04-13.43,35.23-36.09,35.23c-22.66,0-36.09-13.2-36.09-35.23v-29.59
		c0-6.82,5.88-12.34,13.12-12.34h5.32v41.29c0,14.23,7.53,21.09,18.69,21.09c11.27,0,17.85-6.92,17.85-21.14l0.22-41.24h3.85
		c7.25,0,13.12,5.53,13.12,12.34V292.26z M118.22,229.44c0,5.41-4.6,11.32-10.67,11.32H89.01l-0.32,55.74
		c0,5.26-4.78,9.52-10.68,9.52c-5.9,0-10.68-4.26-10.68-9.52v-57.26c-0.05-8.47,7.62-15.37,17.12-15.41l33.76-0.11V229.44z"/>
</g>
</svg>
